# Blender 3.6.2
# www.blender.org
mtllib box.mtl
o Plane
v 0.000000 0.000000 200.000000
v 200.000000 0.000000 200.000000
v 0.000000 0.000000 0.000000
v 200.000000 0.000000 0.000000
v 0.000000 200.000000 200.000000
v 200.000000 200.000000 200.000000
v 200.000000 200.000000 0.000000
v 0.000000 -7.071068 207.071075
v 205.773499 -5.773503 205.773499
v 0.000000 -10.000000 0.000000
v 207.071075 -7.071068 0.000000
v 0.000000 200.000000 210.000000
v 207.071075 200.000000 207.071075
v 210.000000 200.000000 0.000000
vn -0.0000 1.0000 -0.0000
vn -1.0000 -0.0000 -0.0000
vn -0.0000 -0.0000 -1.0000
vn 0.0064 -0.9999 0.0141
vn 0.9999 -0.0141 0.0064
vn 0.0064 -0.0141 0.9999
vn 0.0141 -0.9999 0.0064
vn 0.9999 -0.0064 0.0141
vn 0.0141 -0.0064 0.9999
vt 0.000000 0.000000
s 0
f 2/1/1 3/1/1 1/1/1
f 2/1/2 7/1/2 4/1/2
f 1/1/3 6/1/3 2/1/3
f 10/1/4 9/1/4 8/1/4
f 14/1/5 9/1/5 11/1/5
f 9/1/6 12/1/6 8/1/6
f 4/1/3 10/1/3 3/1/3
f 1/1/2 10/1/2 8/1/2
f 6/1/1 12/1/1 13/1/1
f 6/1/1 14/1/1 7/1/1
f 4/1/3 14/1/3 11/1/3
f 1/1/2 12/1/2 5/1/2
f 2/1/1 4/1/1 3/1/1
f 2/1/2 6/1/2 7/1/2
f 1/1/3 5/1/3 6/1/3
f 10/1/7 11/1/7 9/1/7
f 14/1/8 13/1/8 9/1/8
f 9/1/9 13/1/9 12/1/9
f 4/1/3 11/1/3 10/1/3
f 1/1/2 3/1/2 10/1/2
f 6/1/1 5/1/1 12/1/1
f 6/1/1 13/1/1 14/1/1
f 4/1/3 7/1/3 14/1/3
f 1/1/2 8/1/2 12/1/2
